# xmcd
#
# Track frame offsets: 
#        150
#        23335
#        52814
#        77894
#        112280
#        134854
#        183465
#        211549
#        246827
#        269371
#        290659
#        311304
#
# Disc length: 4763 seconds
#
# Revision: 0
# Processed by: cddbd v1.5.2PL0 Copyright (c) Steve Scherf et al.
# Submitted via: ExactAudioCopy v1.3
#
DISCID=aa12990c
DTITLE=Various Artist - Akella Presents - vol.197 - It's Blues! Live!
DTITLE=CD1
DYEAR=2019
DGENRE=Blues
TTITLE0=Theodis Ealey - Blues Is Calling My Name
TTITLE1=Tommy Castro - Lose Lose
TTITLE2=Polly O'Keary and The Rhythm Method - In My Father's House
TTITLE3=The Bill Perry Band - How Blue Can You Get
TTITLE4=Fred Chapellier - Something About You
TTITLE5=Alvaro Assmar - Ramblin' on My Mind
TTITLE6=Miss Kaytie - Cold Feeling
TTITLE7=The Alabama Lovesnakes - The Matters Of The Heart
TTITLE8=Mike Zito - Dead of Night
TTITLE9=Tommy Lepson and The Lazy Boys - Precious
TTITLE10=The Hoochies - So Unfair
TTITLE11=Paul Gemmell - Call My Mother
EXTD=
EXTT0=
EXTT1=
EXTT2=
EXTT3=
EXTT4=
EXTT5=
EXTT6=
EXTT7=
EXTT8=
EXTT9=
EXTT10=
EXTT11=
PLAYORDER=
